<?xml version="1.0" standalone="no"?>
<!DOCTYPE svg PUBLIC "-//W3C//DTD SVG 20010904//EN"
 "http://www.w3.org/TR/2001/REC-SVG-20010904/DTD/svg10.dtd">
<svg version="1.0" xmlns="http://www.w3.org/2000/svg"
 width="304.000000pt" height="304.000000pt" viewBox="0 0 304.000000 304.000000"
 preserveAspectRatio="xMidYMid meet">
<metadata>
Created by potrace 1.11, written by Peter Selinger 2001-2013
</metadata>
<g transform="translate(0.000000,304.000000) scale(0.100000,-0.100000)"
fill="#000000" stroke="none">
<path d="M1438 3034 c-4 -4 -31 -9 -60 -11 -43 -3 -113 -14 -223 -37 -5 -1
-16 -5 -22 -9 -7 -5 -13 -6 -13 -2 0 3 -16 -1 -35 -9 -19 -8 -35 -13 -35 -11
0 3 -25 -6 -55 -20 -31 -13 -58 -24 -60 -24 -12 0 -160 -75 -163 -82 -2 -5
-10 -9 -18 -9 -8 0 -14 -5 -14 -11 0 -5 -4 -8 -8 -5 -14 8 -192 -131 -272
-213 -95 -96 -129 -137 -188 -225 -26 -39 -50 -73 -53 -76 -3 -3 -29 -52 -56
-110 -48 -98 -105 -257 -116 -325 -3 -16 -10 -55 -16 -85 -23 -126 -25 -149
-26 -245 0 -89 4 -141 20 -240 3 -16 7 -41 9 -55 11 -69 58 -224 86 -285 5
-11 23 -51 41 -90 32 -71 145 -247 196 -306 147 -169 335 -314 516 -398 70
-33 149 -64 167 -66 3 0 10 -4 17 -8 13 -8 207 -53 273 -62 93 -14 265 -17
314 -6 28 6 73 13 100 16 117 13 399 100 418 129 4 6 8 8 8 4 0 -15 210 110
210 125 0 6 3 8 6 4 11 -11 147 106 245 209 82 88 221 284 202 284 -4 0 -3 4
4 8 22 14 154 322 137 322 -2 0 0 9 6 19 5 11 19 75 30 143 49 296 5 619 -122
887 -51 108 -136 245 -186 298 -21 24 -37 44 -35 46 6 7 -229 227 -242 227 -3
0 -16 9 -28 21 -35 33 -215 132 -303 167 -104 42 -234 78 -354 99 -107 18
-291 29 -302 17z"/>
</g>
</svg>
